<?xml version="1.0" standalone="no"?>
<!DOCTYPE svg PUBLIC "-//W3C//DTD SVG 20010904//EN"
 "http://www.w3.org/TR/2001/REC-SVG-20010904/DTD/svg10.dtd">
<svg version="1.0" xmlns="http://www.w3.org/2000/svg"
 width="512.000000pt" height="512.000000pt" viewBox="0 0 512.000000 512.000000"
 preserveAspectRatio="xMidYMid meet">

<g transform="translate(0.000000,512.000000) scale(0.100000,-0.100000)"
fill="#1479D4" stroke="none">
<path d="M1454 4156 l-34 -34 0 -616 0 -616 -486 0 -486 0 -29 -29 -29 -29 0
-187 0 -187 29 -29 c40 -40 89 -40 133 0 l33 29 3 116 4 116 414 0 414 0 0
-775 0 -775 -415 0 -415 0 0 285 c0 304 -4 330 -49 355 -35 18 -87 12 -120
-16 l-31 -26 -2 -301 -3 -302 -150 -2 c-82 -2 -160 -5 -173 -8 -28 -7 -62 -60
-62 -98 0 -20 11 -40 34 -63 l34 -34 2486 0 c1765 0 2492 3 2509 11 28 13 57
58 57 89 0 29 -26 77 -49 90 -11 6 -89 10 -180 10 l-161 0 0 514 c0 310 -4
525 -10 540 -5 14 -24 35 -42 46 -32 19 -51 20 -510 20 l-478 0 0 641 0 641
-29 29 -29 29 -486 0 -485 0 -3 271 -3 271 -33 29 -32 29 -551 0 -551 0 -34
-34z m1004 -1593 l2 -1423 -420 0 -420 0 0 1418 c0 780 3 1422 7 1425 4 4 191
6 417 5 l411 -3 3 -1422z m1032 -298 l0 -1125 -415 0 -415 0 0 1125 0 1125
415 0 415 0 0 -1125z m1040 -675 l0 -450 -420 0 -420 0 0 450 0 450 420 0 420
0 0 -450z"/>
<path d="M438 2185 c-87 -49 -50 -185 49 -185 64 1 110 54 99 114 -12 66 -91
103 -148 71z"/>
</g>
</svg>
