<?xml version="1.0" standalone="no"?>
<!DOCTYPE svg PUBLIC "-//W3C//DTD SVG 20010904//EN"
 "http://www.w3.org/TR/2001/REC-SVG-20010904/DTD/svg10.dtd">
<svg version="1.0" xmlns="http://www.w3.org/2000/svg"
 width="512.000000pt" height="512.000000pt" viewBox="0 0 512.000000 512.000000"
 preserveAspectRatio="xMidYMid meet">

<g transform="translate(0.000000,512.000000) scale(0.100000,-0.100000)"
fill="#1479D4" stroke="none">
<path d="M1980 5099 c-111 -50 -121 -74 -175 -444 -25 -168 -45 -309 -45 -313
0 -4 -30 -22 -66 -40 -36 -18 -109 -60 -162 -94 -53 -34 -104 -61 -112 -60 -8
0 -139 51 -290 112 -151 61 -294 113 -317 117 -68 9 -131 -14 -183 -67 -31
-32 -124 -184 -300 -491 l-255 -444 0 -77 c0 -69 3 -80 30 -119 19 -27 123
-116 270 -231 l240 -187 2 -200 2 -199 -241 -188 c-132 -103 -253 -205 -269
-227 -32 -44 -44 -106 -35 -170 5 -31 79 -167 266 -492 143 -247 270 -459 282
-473 40 -42 98 -66 163 -66 54 -1 89 11 344 113 156 63 289 114 295 114 6 0
49 -25 96 -55 47 -31 120 -73 163 -94 42 -21 77 -42 77 -46 0 -5 20 -145 45
-313 54 -369 64 -394 175 -444 43 -20 63 -21 580 -21 l535 0 51 24 c60 28 108
83 122 140 6 22 29 171 52 331 23 159 42 291 43 291 1 1 35 18 76 39 40 20
112 62 160 92 47 31 93 56 101 55 8 0 139 -51 290 -112 151 -61 294 -113 317
-117 68 -9 131 14 183 67 31 32 122 180 292 476 136 236 251 442 257 457 26
68 6 174 -42 225 -12 13 -128 107 -258 209 l-236 184 0 199 0 199 236 184
c130 102 246 196 258 209 50 53 69 161 39 231 -21 51 -494 868 -525 907 -45
57 -105 85 -181 84 -59 -1 -92 -12 -350 -117 l-285 -116 -90 59 c-49 32 -125
76 -167 96 -43 21 -78 42 -78 45 0 4 -20 145 -44 312 -54 370 -64 395 -176
446 -43 20 -63 21 -580 21 -517 0 -537 -1 -580 -21z m1081 -207 c4 -4 28 -155
54 -337 27 -196 52 -339 61 -352 8 -13 69 -50 136 -84 108 -53 228 -126 296
-180 50 -39 64 -36 383 85 167 63 316 119 330 124 25 10 27 7 267 -407 132
-229 244 -424 247 -432 4 -11 -65 -71 -257 -221 -145 -113 -270 -214 -278
-223 -20 -24 -23 -569 -3 -602 7 -12 132 -115 278 -229 180 -141 264 -212 260
-222 -15 -39 -501 -851 -510 -852 -6 0 -152 57 -324 126 -237 94 -321 124
-340 119 -14 -4 -71 -37 -127 -75 -55 -38 -155 -96 -222 -129 -67 -34 -128
-71 -136 -84 -8 -12 -39 -174 -69 -360 -31 -187 -57 -340 -59 -341 -2 -1 -226
0 -498 3 l-494 6 -49 335 c-28 195 -55 344 -63 357 -8 13 -69 50 -136 84 -107
53 -212 117 -300 182 -16 12 -42 20 -65 19 -23 0 -158 -46 -353 -120 l-315
-120 -16 27 c-34 54 -469 810 -474 823 -4 10 80 82 260 222 146 114 271 217
278 229 20 34 17 578 -3 602 -8 10 -131 112 -273 228 -142 116 -257 216 -255
223 6 26 493 843 503 844 6 0 152 -57 324 -126 231 -92 321 -124 339 -119 14
3 75 39 136 80 61 40 162 99 223 129 62 31 119 66 127 79 8 12 37 163 66 337
27 173 53 326 55 340 l5 25 493 -3 c270 -2 495 -7 498 -10z"/>
<path d="M2455 3620 c-410 -41 -770 -325 -903 -715 -73 -215 -73 -475 0 -690
122 -355 426 -621 803 -700 106 -22 304 -22 410 0 432 91 748 406 840 840 23
107 23 303 0 410 -68 322 -261 583 -539 731 -190 101 -403 144 -611 124z m362
-249 c107 -35 136 -49 218 -104 91 -62 171 -143 234 -238 189 -282 189 -656 0
-938 -117 -175 -268 -286 -479 -352 -65 -20 -96 -24 -230 -23 -122 0 -168 4
-215 18 -275 84 -476 262 -574 508 -190 476 79 1011 574 1142 92 24 101 25
245 21 119 -3 146 -7 227 -34z"/>
</g>
</svg>
